#N canvas 1147 127 450 358 12;
#X obj 28 18 inlet;
#X obj 28 43 sel 0;
#X msg 28 68 stop;
#X obj 82 18 moses;
#X obj 82 43 t b b;
#X obj 82 68 t b;
#X msg 32 148 0;
#X obj 73 121 f \$1;
#X obj 73 148 pack 0 \$2;
#X obj 154 63 inlet;
#X text 154 41 Level;
#X obj 200 63 inlet;
#X obj 247 63 inlet;
#X obj 297 63 inlet;
#X obj 344 63 inlet;
#X obj 208 143 del \$2;
#X obj 238 168 f \$4;
#X obj 238 193 * 0.1;
#X obj 268 218 * \$1;
#X obj 268 243 pack 0 \$3;
#X obj 321 143 pack 0 \$5;
#X obj 197 294 line~;
#X obj 197 319 outlet~;
#X text 214 44 A;
#X text 262 44 D;
#X text 310 44 S;
#X text 357 44 R;
#X text 38 264 ADSR patch dRbiG 09.06.2012;
#X connect 0 0 1 0;
#X connect 1 0 2 0;
#X connect 1 0 20 0;
#X connect 1 1 3 0;
#X connect 2 0 15 0;
#X connect 3 0 4 0;
#X connect 3 1 5 0;
#X connect 4 0 5 0;
#X connect 4 1 6 0;
#X connect 5 0 7 0;
#X connect 5 0 15 0;
#X connect 6 0 21 0;
#X connect 7 0 8 0;
#X connect 8 0 21 0;
#X connect 9 0 7 1;
#X connect 9 0 18 1;
#X connect 11 0 8 1;
#X connect 11 0 15 1;
#X connect 12 0 19 1;
#X connect 13 0 16 1;
#X connect 14 0 20 1;
#X connect 15 0 16 0;
#X connect 16 0 17 0;
#X connect 17 0 18 0;
#X connect 18 0 19 0;
#X connect 19 0 21 0;
#X connect 20 0 21 0;
#X connect 21 0 22 0;
