#N canvas 1174 389 450 384 12;
#X obj 74 73 inlet~;
#X obj 74 245 *~;
#X obj 74 280 dac~;
#X obj 102 120 vsl 37 64 0 255 0 0 empty empty empty 0 -9 0 10 -262144
-1 -1 3838 1;
#X obj 102 215 / 255;
#X floatatom 102 189 5 0 0 0 - - -;
#X text 116 240 mdac~ dRbiG 09.06.2012;
#X obj 226 120 loadbang;
#X msg 160 153 set 127;
#X msg 226 153 127;
#X connect 0 0 1 0;
#X connect 1 0 2 0;
#X connect 1 0 2 1;
#X connect 3 0 5 0;
#X connect 4 0 1 1;
#X connect 5 0 4 0;
#X connect 7 0 8 0;
#X connect 7 0 9 0;
#X connect 8 0 3 0;
#X connect 9 0 5 0;
#X coords 0 -1 1 1 41 110 1 100 100;
